<svg id="visual" viewBox="0 0 960 540" width="960" height="540" xmlns="http://www.w3.org/2000/svg" xmlns:xlink="http://www.w3.org/1999/xlink" version="1.1"><path d="M0 329L22.8 333.2C45.7 337.3 91.3 345.7 137 350.2C182.7 354.7 228.3 355.3 274 351C319.7 346.7 365.3 337.3 411.2 344C457 350.7 503 373.3 548.8 379.2C594.7 385 640.3 374 686 367.5C731.7 361 777.3 359 823 360.5C868.7 362 914.3 367 937.2 369.5L960 372L960 541L937.2 541C914.3 541 868.7 541 823 541C777.3 541 731.7 541 686 541C640.3 541 594.7 541 548.8 541C503 541 457 541 411.2 541C365.3 541 319.7 541 274 541C228.3 541 182.7 541 137 541C91.3 541 45.7 541 22.8 541L0 541Z" fill="#c62368"></path><path d="M0 397L22.8 390C45.7 383 91.3 369 137 371.5C182.7 374 228.3 393 274 397.3C319.7 401.7 365.3 391.3 411.2 391.5C457 391.7 503 402.3 548.8 409.5C594.7 416.7 640.3 420.3 686 422.2C731.7 424 777.3 424 823 423.7C868.7 423.3 914.3 422.7 937.2 422.3L960 422L960 541L937.2 541C914.3 541 868.7 541 823 541C777.3 541 731.7 541 686 541C640.3 541 594.7 541 548.8 541C503 541 457 541 411.2 541C365.3 541 319.7 541 274 541C228.3 541 182.7 541 137 541C91.3 541 45.7 541 22.8 541L0 541Z" fill="#d21d74"></path><path d="M0 426L22.8 422.5C45.7 419 91.3 412 137 408.8C182.7 405.7 228.3 406.3 274 406C319.7 405.7 365.3 404.3 411.2 410.7C457 417 503 431 548.8 435C594.7 439 640.3 433 686 433C731.7 433 777.3 439 823 438.7C868.7 438.3 914.3 431.7 937.2 428.3L960 425L960 541L937.2 541C914.3 541 868.7 541 823 541C777.3 541 731.7 541 686 541C640.3 541 594.7 541 548.8 541C503 541 457 541 411.2 541C365.3 541 319.7 541 274 541C228.3 541 182.7 541 137 541C91.3 541 45.7 541 22.8 541L0 541Z" fill="#de1682"></path><path d="M0 488L22.8 481.3C45.7 474.7 91.3 461.3 137 455.7C182.7 450 228.3 452 274 449.8C319.7 447.7 365.3 441.3 411.2 441.7C457 442 503 449 548.8 456.7C594.7 464.3 640.3 472.7 686 472.3C731.7 472 777.3 463 823 463C868.7 463 914.3 472 937.2 476.5L960 481L960 541L937.2 541C914.3 541 868.7 541 823 541C777.3 541 731.7 541 686 541C640.3 541 594.7 541 548.8 541C503 541 457 541 411.2 541C365.3 541 319.7 541 274 541C228.3 541 182.7 541 137 541C91.3 541 45.7 541 22.8 541L0 541Z" fill="#e90d91"></path><path d="M0 481L22.8 484.2C45.7 487.3 91.3 493.7 137 498.8C182.7 504 228.3 508 274 504C319.7 500 365.3 488 411.2 484.7C457 481.3 503 486.7 548.8 491.7C594.7 496.7 640.3 501.3 686 502.3C731.7 503.3 777.3 500.7 823 497.5C868.7 494.3 914.3 490.7 937.2 488.8L960 487L960 541L937.2 541C914.3 541 868.7 541 823 541C777.3 541 731.7 541 686 541C640.3 541 594.7 541 548.8 541C503 541 457 541 411.2 541C365.3 541 319.7 541 274 541C228.3 541 182.7 541 137 541C91.3 541 45.7 541 22.8 541L0 541Z" fill="#f403a1"></path></svg>